<svg width="56" height="56" viewBox="0 0 56 56" fill="none" xmlns="http://www.w3.org/2000/svg">
<path opacity="0.2" d="M52.5001 27.125C52.5008 29.2969 51.828 31.4156 50.5743 33.1891C49.3206 34.9627 47.5478 36.3038 45.5001 37.0278V38.5C45.5001 40.8206 44.5782 43.0462 42.9373 44.6872C41.2964 46.3281 39.0708 47.25 36.7501 47.25C34.4295 47.25 32.2039 46.3281 30.5629 44.6872C28.922 43.0462 28.0001 40.8206 28.0001 38.5C28.0001 40.8206 27.0782 43.0462 25.4373 44.6872C23.7964 46.3281 21.5708 47.25 19.2501 47.25C16.9295 47.25 14.7039 46.3281 13.0629 44.6872C11.422 43.0462 10.5001 40.8206 10.5001 38.5V37.0278C8.45067 36.3054 6.67584 34.9649 5.42039 33.1912C4.16494 31.4176 3.49072 29.298 3.49072 27.125C3.49072 24.952 4.16494 22.8324 5.42039 21.0588C6.67584 19.2851 8.45067 17.9446 10.5001 17.2222V15.75C10.5001 13.4294 11.422 11.2038 13.0629 9.56282C14.7039 7.92187 16.9295 7 19.2501 7C21.5708 7 23.7964 7.92187 25.4373 9.56282C27.0782 11.2038 28.0001 13.4294 28.0001 15.75C28.0001 13.4294 28.922 11.2038 30.5629 9.56282C32.2039 7.92187 34.4295 7 36.7501 7C39.0708 7 41.2964 7.92187 42.9373 9.56282C44.5782 11.2038 45.5001 13.4294 45.5001 15.75V17.2222C47.5478 17.9462 49.3206 19.2873 50.5743 21.0609C51.828 22.8344 52.5008 24.9531 52.5001 27.125Z" fill="#A9FC81"/>
<path d="M54.2502 27.125C54.2479 24.807 53.5892 22.537 52.3504 20.5777C51.1116 18.6185 49.3433 17.0501 47.2502 16.0541V15.75C47.2482 13.4952 46.5203 11.3009 45.1744 9.49181C43.8284 7.68274 41.9359 6.35501 39.7768 5.70506C37.6176 5.05511 35.3066 5.11748 33.1857 5.88294C31.0648 6.6484 29.2466 8.07628 28.0002 9.95531C26.7538 8.07628 24.9356 6.6484 22.8147 5.88294C20.6937 5.11748 18.3827 5.05511 16.2236 5.70506C14.0645 6.35501 12.1719 7.68274 10.826 9.49181C9.48002 11.3009 8.75219 13.4952 8.75018 15.75V16.0541C6.65529 17.0474 4.88529 18.6148 3.64588 20.5741C2.40647 22.5335 1.74854 24.8044 1.74854 27.1228C1.74854 29.4413 2.40647 31.7121 3.64588 33.6715C4.88529 35.6308 6.65529 37.1982 8.75018 38.1916V38.5C8.75219 40.7548 9.48002 42.9491 10.826 44.7582C12.1719 46.5673 14.0645 47.895 16.2236 48.5449C18.3827 49.1949 20.6937 49.1325 22.8147 48.3671C24.9356 47.6016 26.7538 46.1737 28.0002 44.2947C29.2466 46.1737 31.0648 47.6016 33.1857 48.3671C35.3066 49.1325 37.6176 49.1949 39.7768 48.5449C41.9359 47.895 43.8284 46.5673 45.1744 44.7582C46.5203 42.9491 47.2482 40.7548 47.2502 38.5V38.1916C49.343 37.1963 51.1111 35.6287 52.3499 33.6702C53.5887 31.7117 54.2476 29.4424 54.2502 27.125ZM19.2502 45.5C17.5241 45.4998 15.859 44.8618 14.5747 43.7087C13.2903 42.5555 12.4773 40.9686 12.2917 39.2525C12.8577 39.3332 13.4285 39.3742 14.0002 39.375H15.7502C16.2143 39.375 16.6594 39.1906 16.9876 38.8624C17.3158 38.5342 17.5002 38.0891 17.5002 37.625C17.5002 37.1609 17.3158 36.7158 16.9876 36.3876C16.6594 36.0594 16.2143 35.875 15.7502 35.875H14.0002C11.9342 35.8774 9.93403 35.1487 8.35375 33.818C6.77348 32.4872 5.71504 30.6402 5.36585 28.604C5.01665 26.5677 5.39921 24.4736 6.44581 22.6924C7.4924 20.9111 9.13551 19.5576 11.0842 18.8716C11.4252 18.7508 11.7204 18.5274 11.9292 18.2321C12.138 17.9367 12.2501 17.5839 12.2502 17.2222V15.75C12.2502 13.8935 12.9877 12.113 14.3004 10.8003C15.6132 9.4875 17.3937 8.75 19.2502 8.75C21.1067 8.75 22.8872 9.4875 24.1999 10.8003C25.5127 12.113 26.2502 13.8935 26.2502 15.75V30.6819C24.3285 28.9535 21.8348 27.9981 19.2502 28C18.786 28 18.3409 28.1844 18.0127 28.5126C17.6845 28.8408 17.5002 29.2859 17.5002 29.75C17.5002 30.2141 17.6845 30.6592 18.0127 30.9874C18.3409 31.3156 18.786 31.5 19.2502 31.5C21.1067 31.5 22.8872 32.2375 24.1999 33.5503C25.5127 34.863 26.2502 36.6435 26.2502 38.5C26.2502 40.3565 25.5127 42.137 24.1999 43.4497C22.8872 44.7625 21.1067 45.5 19.2502 45.5ZM42.0002 35.875H40.2502C39.786 35.875 39.3409 36.0594 39.0127 36.3876C38.6845 36.7158 38.5002 37.1609 38.5002 37.625C38.5002 38.0891 38.6845 38.5342 39.0127 38.8624C39.3409 39.1906 39.786 39.375 40.2502 39.375H42.0002C42.5718 39.3742 43.1427 39.3332 43.7086 39.2525C43.5632 40.5971 43.0315 41.8708 42.1776 42.9196C41.3237 43.9683 40.1843 44.7473 38.8971 45.1623C37.61 45.5773 36.2301 45.6105 34.9245 45.258C33.6188 44.9054 32.4432 44.1822 31.5398 43.1758C30.6365 42.1693 30.044 40.9227 29.834 39.5867C29.6241 38.2507 29.8057 36.8824 30.3568 35.6474C30.9079 34.4124 31.805 33.3634 32.9396 32.6274C34.0742 31.8914 35.3978 31.4998 36.7502 31.5C37.2143 31.5 37.6594 31.3156 37.9876 30.9874C38.3158 30.6592 38.5002 30.2141 38.5002 29.75C38.5002 29.2859 38.3158 28.8408 37.9876 28.5126C37.6594 28.1844 37.2143 28 36.7502 28C34.1656 27.9981 31.6719 28.9535 29.7502 30.6819V15.75C29.7502 13.8935 30.4877 12.113 31.8004 10.8003C33.1132 9.4875 34.8937 8.75 36.7502 8.75C38.6067 8.75 40.3872 9.4875 41.6999 10.8003C43.0127 12.113 43.7502 13.8935 43.7502 15.75V17.2222C43.7502 17.5839 43.8624 17.9367 44.0712 18.2321C44.28 18.5274 44.5751 18.7508 44.9161 18.8716C46.8648 19.5576 48.5079 20.9111 49.5545 22.6924C50.6011 24.4736 50.9837 26.5677 50.6345 28.604C50.2853 30.6402 49.2269 32.4872 47.6466 33.818C46.0663 35.1487 44.0661 35.8774 42.0002 35.875ZM45.5002 24.5C45.5002 24.9641 45.3158 25.4092 44.9876 25.7374C44.6594 26.0656 44.2143 26.25 43.7502 26.25H42.8752C40.7866 26.25 38.7836 25.4203 37.3067 23.9435C35.8299 22.4666 35.0002 20.4636 35.0002 18.375V17.5C35.0002 17.0359 35.1845 16.5908 35.5127 16.2626C35.8409 15.9344 36.286 15.75 36.7502 15.75C37.2143 15.75 37.6594 15.9344 37.9876 16.2626C38.3158 16.5908 38.5002 17.0359 38.5002 17.5V18.375C38.5002 19.5353 38.9611 20.6481 39.7816 21.4686C40.6021 22.2891 41.7149 22.75 42.8752 22.75H43.7502C44.2143 22.75 44.6594 22.9344 44.9876 23.2626C45.3158 23.5908 45.5002 24.0359 45.5002 24.5ZM13.1252 26.25H12.2502C11.786 26.25 11.3409 26.0656 11.0127 25.7374C10.6845 25.4092 10.5002 24.9641 10.5002 24.5C10.5002 24.0359 10.6845 23.5908 11.0127 23.2626C11.3409 22.9344 11.786 22.75 12.2502 22.75H13.1252C14.2855 22.75 15.3983 22.2891 16.2188 21.4686C17.0392 20.6481 17.5002 19.5353 17.5002 18.375V17.5C17.5002 17.0359 17.6845 16.5908 18.0127 16.2626C18.3409 15.9344 18.786 15.75 19.2502 15.75C19.7143 15.75 20.1594 15.9344 20.4876 16.2626C20.8158 16.5908 21.0002 17.0359 21.0002 17.5V18.375C21.0002 20.4636 20.1705 22.4666 18.6936 23.9435C17.2168 25.4203 15.2138 26.25 13.1252 26.25Z" fill="#A9FC81"/>
</svg>
