<svg width="56" height="56" viewBox="0 0 56 56" fill="none" xmlns="http://www.w3.org/2000/svg">
<path opacity="0.2" d="M22.75 22.75V45.5H8.75C8.28587 45.5 7.84075 45.3156 7.51256 44.9874C7.18437 44.6592 7 44.2141 7 43.75V22.75H22.75Z" fill="#A9FC81"/>
<path d="M47.25 8.75H8.75C7.82174 8.75 6.9315 9.11875 6.27513 9.77513C5.61875 10.4315 5.25 11.3217 5.25 12.25V43.75C5.25 44.6783 5.61875 45.5685 6.27513 46.2249C6.9315 46.8813 7.82174 47.25 8.75 47.25H47.25C48.1783 47.25 49.0685 46.8813 49.7249 46.2249C50.3813 45.5685 50.75 44.6783 50.75 43.75V12.25C50.75 11.3217 50.3813 10.4315 49.7249 9.77513C49.0685 9.11875 48.1783 8.75 47.25 8.75ZM47.25 12.25V21H8.75V12.25H47.25ZM8.75 24.5H21V43.75H8.75V24.5ZM47.25 43.75H24.5V24.5H47.25V43.75Z" fill="#A9FC81"/>
</svg>
