<svg width="56" height="56" viewBox="0 0 56 56" fill="none" xmlns="http://www.w3.org/2000/svg">
<path opacity="0.2" d="M46.6527 22.75L42.7152 15.9293C42.1309 14.9327 41.1762 14.2076 40.0592 13.9123C38.9423 13.617 37.7539 13.7755 36.7534 14.3531C35.7529 14.9308 35.0215 15.8808 34.7188 16.9957C34.4161 18.1106 34.5667 19.3 35.1377 20.3043L29.0127 9.69497C28.4164 8.72347 27.4645 8.02305 26.3596 7.74281C25.2547 7.46257 24.084 7.62463 23.0968 8.1945C22.1096 8.76437 21.3838 9.69704 21.0738 10.794C20.7639 11.891 20.8944 13.0656 21.4374 14.0678L19.6874 11.0381C19.1031 10.0414 18.1483 9.31635 17.0314 9.02106C15.9145 8.72576 14.7261 8.88423 13.7256 9.46189C12.7251 10.0396 11.9937 10.9895 11.691 12.1044C11.3883 13.2194 11.5389 14.4088 12.1099 15.4131L14.7349 19.9697L14.479 20.1884C13.6757 19.5718 12.6835 19.253 11.6715 19.2862C10.6594 19.3194 9.69025 19.7026 8.92918 20.3705C8.16811 21.0384 7.66228 21.9496 7.49795 22.9488C7.33362 23.948 7.52096 24.9732 8.02803 25.8497L16.3405 40.25C18.6612 44.2696 22.4836 47.2028 26.9668 48.4041C31.4501 49.6055 36.227 48.9767 40.2466 46.6561C44.2663 44.3354 47.1994 40.513 48.4008 36.0298C49.6022 31.5465 48.9734 26.7696 46.6527 22.75ZM34.0549 36.015L34.0921 35.9931L34.1227 36.0456L34.0549 36.015Z" fill="white"/>
<path d="M48.1686 21.875L44.2311 15.0544C43.7148 14.1589 42.9803 13.4087 42.0959 12.8736C41.2116 12.3385 40.2062 12.0358 39.1734 11.9939C38.1406 11.952 37.114 12.1721 36.1892 12.6338C35.2644 13.0955 34.4714 13.7837 33.8842 14.6344L30.5286 8.81784C29.9978 7.89862 29.2372 7.13313 28.3214 6.59643C27.4056 6.05973 26.3661 5.77024 25.3047 5.75634C24.2433 5.74244 23.1965 6.00462 22.267 6.51716C21.3374 7.02971 20.5571 7.77502 20.0024 8.68002C18.919 7.70468 17.5233 7.14768 16.0661 7.10915C14.6089 7.07061 13.1857 7.55306 12.0523 8.46978C10.9189 9.38651 10.1497 10.6774 9.88274 12.1105C9.61582 13.5436 9.86877 15.0249 10.5961 16.2881L11.3267 17.5547C10.2963 17.6375 9.30358 17.9798 8.44106 18.5496C7.57854 19.1195 6.87429 19.8984 6.3939 20.8137C5.9135 21.7291 5.67261 22.7512 5.69365 23.7847C5.71469 24.8183 5.99699 25.8297 6.51424 26.7247L14.8267 41.1228C16.0855 43.316 17.7666 45.2379 19.7727 46.7773C21.7789 48.3168 24.0703 49.4432 26.5146 50.0916C28.15 50.5284 29.8356 50.7491 31.5283 50.7478C34.9045 50.7422 38.2198 49.8488 41.1416 48.1572C44.0634 46.4656 46.4889 44.0352 48.1747 41.1101C49.8606 38.185 50.7474 34.8679 50.7464 31.4918C50.7453 28.1156 49.8563 24.7991 48.1686 21.875ZM46.7095 35.5753C45.9034 38.5843 44.2232 41.2866 41.8812 43.3406C39.5393 45.3946 36.6408 46.708 33.5524 47.1147C30.464 47.5214 27.3244 47.0032 24.5305 45.6256C21.7367 44.2479 19.4141 42.0727 17.8564 39.375L9.54393 24.9769C9.37157 24.6783 9.25971 24.3486 9.21474 24.0068C9.16978 23.665 9.19259 23.3176 9.28186 22.9846C9.46216 22.312 9.90226 21.7386 10.5053 21.3905C11.1084 21.0424 11.8251 20.9481 12.4976 21.1284C12.8307 21.2177 13.1429 21.3717 13.4164 21.5816C13.6899 21.7915 13.9194 22.0533 14.0917 22.3519L18.9042 30.6863C19.0158 30.8916 19.1673 31.0726 19.3499 31.2185C19.5324 31.3643 19.7424 31.4721 19.9673 31.5355C20.1922 31.5989 20.4276 31.6166 20.6595 31.5876C20.8914 31.5586 21.1151 31.4834 21.3174 31.3665C21.5198 31.2497 21.6967 31.0934 21.8377 30.9071C21.9787 30.7207 22.0809 30.508 22.1384 30.2815C22.1959 30.055 22.2074 29.8192 22.1723 29.5882C22.1371 29.3571 22.0561 29.1355 21.9339 28.9363L13.6214 14.5403C13.3619 14.0907 13.2415 13.5742 13.2755 13.0561C13.3095 12.538 13.4963 12.0417 13.8124 11.6298C14.1285 11.2179 14.5597 10.909 15.0513 10.7422C15.543 10.5754 16.0731 10.5581 16.5746 10.6925C16.9081 10.7805 17.2209 10.9339 17.4946 11.1438C17.7684 11.3538 17.9977 11.616 18.1692 11.9153L25.6067 24.7975C25.8452 25.1864 26.2261 25.4667 26.6682 25.5789C27.1104 25.6911 27.5788 25.6261 27.9738 25.398C28.3688 25.1698 28.6591 24.7965 28.7829 24.3574C28.9067 23.9184 28.8541 23.4484 28.6364 23.0475L22.9489 13.2038C22.6158 12.6019 22.5323 11.8933 22.7164 11.2305C22.9004 10.5677 23.3373 10.0035 23.933 9.65954C24.5287 9.31553 25.2356 9.21911 25.9017 9.39102C26.5678 9.56293 27.1397 9.98944 27.4946 10.5788L34.9999 23.5769C33.0892 25.1599 31.7998 27.3674 31.3595 29.8093C30.9191 32.2511 31.3563 34.77 32.5936 36.9206C32.8257 37.3227 33.208 37.6161 33.6563 37.7363C34.1047 37.8565 34.5825 37.7937 34.9845 37.5616C35.3866 37.3295 35.68 36.9472 35.8002 36.4989C35.9204 36.0505 35.8576 35.5727 35.6255 35.1706C34.6974 33.563 34.4458 31.6525 34.9262 29.8594C35.4066 28.0663 36.5795 26.5374 38.1871 25.6091C38.3862 25.4942 38.5607 25.3412 38.7007 25.1589C38.8406 24.9766 38.9433 24.7684 39.0028 24.5464C39.0624 24.3244 39.0775 24.0928 39.0475 23.8649C39.0175 23.637 38.9429 23.4172 38.828 23.2181L36.6405 19.4294C36.3074 18.8275 36.2239 18.1189 36.4079 17.4561C36.5919 16.7933 37.0288 16.2292 37.6245 15.8852C38.2202 15.5412 38.9272 15.4447 39.5932 15.6166C40.2593 15.7886 40.8313 16.2151 41.1861 16.8044L45.1236 23.625C46.1652 25.4127 46.8417 27.3892 47.1139 29.4402C47.3861 31.4911 47.2487 33.5757 46.7095 35.5731V35.5753ZM40.3089 6.54721C40.3683 6.32512 40.4709 6.1169 40.6108 5.93447C40.7507 5.75204 40.9252 5.59896 41.1243 5.48398C41.3234 5.369 41.5431 5.29437 41.7711 5.26436C41.999 5.23435 42.2306 5.24955 42.4527 5.30909C45.933 6.24315 48.7964 8.39565 50.5158 11.375C50.7479 11.7771 50.8107 12.2548 50.6905 12.7032C50.5703 13.1516 50.2769 13.5339 49.8749 13.766C49.4728 13.998 48.995 14.0609 48.5467 13.9407C48.0983 13.8205 47.716 13.5271 47.4839 13.125C46.2327 10.955 44.1239 9.38002 41.547 8.69096C41.325 8.63156 41.1167 8.52897 40.9343 8.38907C40.7519 8.24917 40.5988 8.0747 40.4838 7.87562C40.3688 7.67653 40.2942 7.45675 40.2642 7.22881C40.2342 7.00088 40.2494 6.76927 40.3089 6.54721ZM17.6989 51.8438C17.5566 52.0244 17.3802 52.1752 17.1796 52.2876C16.979 52.4 16.7582 52.4717 16.5298 52.4988C16.3015 52.5258 16.0701 52.5075 15.8488 52.4451C15.6275 52.3826 15.4207 52.2771 15.2402 52.1347C12.8339 50.2338 10.8411 47.8516 8.98393 44.636C8.75186 44.2339 8.68902 43.7561 8.80922 43.3078C8.92941 42.8594 9.22281 42.4771 9.62486 42.245C10.0269 42.013 10.5047 41.9501 10.9531 42.0703C11.4015 42.1905 11.7837 42.4839 12.0158 42.886C13.6433 45.7035 15.3561 47.7685 17.408 49.3872C17.7721 49.6745 18.0073 50.0946 18.0619 50.5553C18.1164 51.0159 17.9859 51.4794 17.6989 51.8438Z" fill="white"/>
</svg>
