<svg width="56" height="56" viewBox="0 0 56 56" fill="none" xmlns="http://www.w3.org/2000/svg">
<path opacity="0.2" d="M45.5 21L28 38.5L10.5 21H45.5Z" fill="white"/>
<path d="M47.1165 20.3306C46.9841 20.0108 46.7598 19.7375 46.4721 19.5451C46.1844 19.3528 45.846 19.2501 45.4999 19.25H10.4999C10.1536 19.2497 9.81498 19.3522 9.52694 19.5445C9.23891 19.7368 9.01439 20.0102 8.88182 20.3301C8.74926 20.6501 8.7146 21.0021 8.78224 21.3418C8.84988 21.6814 9.01677 21.9934 9.26179 22.2381L26.7618 39.7381C26.9243 39.9008 27.1173 40.0299 27.3298 40.118C27.5422 40.206 27.7699 40.2514 27.9999 40.2514C28.2299 40.2514 28.4576 40.206 28.6701 40.118C28.8825 40.0299 29.0755 39.9008 29.238 39.7381L46.738 22.2381C46.9827 21.9933 47.1492 21.6813 47.2166 21.3418C47.284 21.0022 47.2491 20.6504 47.1165 20.3306ZM27.9999 36.0259L14.724 22.75H41.2759L27.9999 36.0259Z" fill="white"/>
</svg>
